<svg xmlns="http://www.w3.org/2000/svg" width="150" height="50" viewBox="0,0,150,50"><rect width="100%" height="100%" fill="rgb(226, 225, 225)"/><path fill="#37e663" d="M40.95 40.07L40.98 40.10L38.86 40.26L38.82 40.23Q38.37 40.24 37.40 40.29L37.46 40.35L37.43 40.32Q36.49 40.41 36.00 40.41L36.04 40.46L36.09 40.50Q34.37 40.42 33.34 39.58L33.38 39.63L33.25 39.50Q34.12 38.46 35.76 36.33L35.79 36.36L35.72 36.29Q37.02 37.89 39.23 37.66L39.24 37.68L39.24 37.67Q40.21 37.62 40.86 36.97L40.89 37.00L40.77 36.89Q41.42 36.24 41.31 35.36L41.33 35.39L41.33 35.39Q41.14 30.71 41.22 26.14L41.34 26.26L41.25 26.17Q41.35 21.63 41.88 17.02L41.79 16.92L41.95 17.09Q43.76 16.77 45.89 15.74L45.86 15.71L45.89 15.73Q43.98 22.43 43.98 29.66L44.17 29.85L44.01 29.69Q44.06 33.28 44.51 36.78L44.47 36.74L44.60 36.87Q44.62 37.16 44.62 37.50L44.54 37.42L44.53 37.41Q44.51 37.96 44.28 38.50L44.34 38.55L44.34 38.55Q43.80 39.83 40.98 40.10ZM45.86 42.88L45.86 42.89L46.33 43.02L46.64 42.91L46.86 42.74L46.90 42.79Q47.09 42.41 47.17 42.29L47.11 42.24L47.20 42.32Q47.36 41.11 47.09 40.12L47.14 40.17L47.02 40.05Q45.74 34.32 46.01 27.96L46.06 28.01L46.04 27.99Q46.21 21.80 48.00 15.90L48.07 15.98L48.17 16.08Q47.13 16.56 45.88 17.28L45.89 17.30L46.03 17.44Q46.08 16.53 46.50 15.01L46.49 15.00L46.55 15.07Q44.10 16.46 41.43 16.76L41.43 16.76L41.34 16.66Q40.97 21.06 40.89 26.00L40.90 26.02L40.88 25.99Q40.91 32.00 40.99 35.43L40.91 35.35L40.86 35.30Q40.99 37.14 39.23 37.29L39.25 37.31L39.33 37.39Q37.52 37.41 35.85 35.77L35.80 35.72L35.79 35.72Q33.79 38.28 32.84 39.85L32.88 39.88L32.80 39.80Q33.45 40.45 34.47 40.68L34.58 40.78L34.44 40.65Q34.37 40.80 34.10 41.03L34.21 41.14L34.28 41.20Q35.56 42.00 37.54 42.26L37.53 42.25L37.67 42.39Q37.90 42.27 41.19 42.58L41.25 42.64L41.27 42.66Q44.47 42.87 45.84 42.87Z"/><path fill="#7551e0" d="M104.29 40.10L104.42 40.22L104.35 40.16Q102.47 40.07 100.80 40.64L100.85 40.70L100.76 40.60Q101.33 37.02 101.44 33.90L101.54 34.00L101.51 33.97Q101.60 30.90 101.38 27.25L101.35 27.22L101.39 27.26Q100.03 26.93 99.27 26.55L99.21 26.49L98.76 23.41L98.83 23.48Q99.54 24.08 101.14 24.65L101.17 24.69L101.13 24.64Q101.03 22.64 100.62 19.90L100.44 19.73L100.55 19.84Q102.76 20.44 104.39 20.29L104.55 20.45L104.31 24.92L104.29 24.91Q105.84 24.98 107.18 24.48L107.13 24.44L107.04 24.35Q107.04 25.29 106.81 27.04L106.85 27.09L106.86 27.09Q105.21 27.31 104.18 27.31L104.30 27.43L104.28 27.41Q104.18 29.48 104.18 33.74L104.30 33.86L104.29 33.85Q104.40 38.12 104.48 40.29ZM107.51 23.83L107.45 23.76L107.50 23.81Q107.25 23.95 106.64 24.17L106.65 24.18L106.96 21.34L107.03 21.40Q106.24 21.72 104.83 21.94L104.71 21.83L104.77 21.89Q104.77 21.21 104.93 19.83L104.97 19.87L104.95 19.86Q104.44 20.03 103.87 20.03L103.79 19.96L103.72 19.88Q101.60 19.90 99.97 19.18L100.10 19.30L99.95 19.16Q100.55 21.74 100.82 24.21L100.80 24.20L100.81 24.21Q99.92 23.85 98.39 22.82L98.42 22.85L98.31 22.73Q98.73 24.11 98.96 26.81L99.03 26.88L98.93 26.78Q99.39 27.01 100.57 27.43L100.51 27.37L100.59 27.45Q100.71 28.18 100.75 29.59L100.56 29.40L101.00 29.50L101.19 29.61L101.10 29.52Q101.09 30.69 101.09 31.87L101.22 32.01L101.15 31.94Q101.14 36.87 100.34 41.21L100.47 41.34L100.44 41.31Q100.60 41.17 102.54 40.63L102.48 40.58L102.61 40.70Q102.58 41.32 102.47 42.69L102.39 42.61L102.36 42.58Q103.33 42.68 104.13 42.68L104.00 42.55L103.95 42.50Q105.68 42.51 107.31 43.08L107.47 43.24L107.31 43.08Q106.07 37.46 106.26 29.54L106.15 29.44L108.64 29.15L108.68 29.18Q108.79 28.30 108.87 27.28L108.77 27.18L109.09 25.29L108.99 25.19Q108.44 25.48 107.26 25.93L107.25 25.92L107.20 25.88Q107.59 24.63 107.51 24.29L107.45 24.22L107.56 24.33Q107.51 24.10 107.59 23.90Z"/><path d="M12 42 C92 3,56 14,133 1" stroke="#49bde3" fill="none"/><path fill="#7c7ce3" d="M132.63 40.45L132.63 40.44L132.62 40.43Q129.68 36.58 127.05 27.94L126.91 27.79L127.03 27.92Q126.38 25.77 125.58 23.64L125.48 23.55L122.61 32.33L122.58 32.29Q120.74 37.20 118.35 40.43L118.35 40.44L118.37 40.46Q117.61 40.61 115.97 40.76L115.87 40.66L116.00 40.79Q115.98 39.48 115.98 38.22L116.03 38.27L116.00 38.24Q116.11 32.33 113.37 26.20L113.37 26.21L113.26 26.09Q110.23 19.30 104.37 14.31L104.36 14.31L104.35 14.29Q106.44 14.94 108.80 15.47L108.72 15.39L108.82 15.49Q117.50 23.94 118.79 34.90L118.70 34.81L118.81 34.92Q120.35 31.51 121.79 26.14L121.93 26.27L121.84 26.19Q123.91 18.78 124.40 17.37L124.33 17.30L126.65 17.37L126.61 17.33Q127.29 19.34 127.94 21.66L128.00 21.73L129.17 26.09L129.10 26.02Q130.73 31.54 132.14 34.77L132.13 34.76L132.20 34.84Q133.82 23.16 141.73 15.82L141.77 15.85L141.75 15.83Q143.21 15.42 146.18 14.78L146.31 14.91L146.18 14.78Q140.92 19.15 137.87 25.28L137.78 25.18L137.84 25.24Q134.69 31.42 134.69 38.20L134.73 38.24L134.73 38.24Q134.84 39.45 134.91 40.59L134.80 40.48L133.64 40.35L133.74 40.45Q133.09 40.33 132.52 40.33ZM138.73 43.19L138.74 43.20L138.78 43.24Q137.49 39.63 137.60 35.75L137.73 35.87L137.58 35.72Q138.03 24.30 147.40 16.04L147.47 16.11L147.45 16.09Q146.47 16.29 144.53 16.82L144.43 16.72L144.55 16.84Q145.53 16.03 147.43 14.24L147.43 14.24L147.27 14.08Q144.71 14.95 141.78 15.45L141.70 15.36L141.72 15.38Q134.24 22.52 132.33 32.00L132.36 32.03L132.28 31.95Q131.84 30.44 128.99 18.98L128.85 18.84L128.96 18.95Q128.56 19.06 127.61 19.06L127.45 18.90L127.27 17.95L127.31 17.99Q127.15 17.41 126.92 16.92L126.83 16.83L123.93 16.82L124.08 16.97Q123.24 19.40 121.96 24.52L121.96 24.52L121.91 24.46Q120.59 29.54 119.60 32.02L119.63 32.05L119.65 32.07Q118.02 24.12 112.46 17.80L112.59 17.93L112.47 17.80Q112.08 17.83 111.13 17.64L111.14 17.66L111.07 17.59Q110.33 16.73 108.77 15.10L108.78 15.11L108.84 15.16Q105.36 14.28 103.19 13.48L103.23 13.51L103.24 13.53Q108.90 18.20 112.18 24.41L112.21 24.44L112.17 24.40Q115.59 30.97 115.59 37.98L115.65 38.04L115.53 37.93Q115.68 39.63 115.49 41.23L115.37 41.12L115.51 41.25Q115.68 41.19 116.13 41.10L116.13 41.09L116.04 41.00Q116.62 41.03 116.85 41.03L116.77 40.95L116.72 41.93L116.87 42.08Q116.79 42.46 116.87 42.99L116.82 42.95L116.97 43.09Q118.11 43.02 120.39 42.86L120.34 42.81L120.36 42.83Q123.94 37.39 126.68 27.98L126.68 27.98L126.72 28.02Q129.53 36.85 132.50 40.81L132.32 40.62L132.33 40.63Q132.91 40.76 133.75 40.87L133.74 40.87L133.77 40.90Q134.63 41.95 135.69 43.01L135.59 42.91L135.63 42.94Q136.41 43.01 138.81 43.28Z"/><path fill="#32e58c" d="M81.81 41.16L81.88 41.23L80.10 41.16L80.04 41.10Q76.60 41.05 75.65 38.92L75.77 39.04L75.79 39.06Q76.85 37.91 78.29 36.80L78.28 36.79L78.29 36.80Q78.87 38.98 81.72 38.83L81.79 38.89L81.88 38.98Q82.55 38.82 83.58 38.59L83.66 38.67L83.58 38.59Q84.52 38.08 84.44 37.13L84.46 37.15L84.49 37.18Q84.44 36.09 82.65 35.41L82.52 35.28L78.78 33.83L78.72 33.76Q76.46 32.49 76.11 28.95L76.18 29.02L76.13 28.97Q75.87 26.77 78.04 26.20L78.04 26.19L78.05 26.21Q79.07 26.05 82.04 26.05L81.99 26.00L81.97 25.98Q86.88 26.01 87.79 28.52L87.90 28.63L87.84 28.57Q87.15 29.06 86.43 29.52L86.51 29.60L85.05 30.50L85.09 30.55Q84.47 28.52 81.24 28.29L81.20 28.25L81.26 28.31Q80.81 28.47 79.79 28.89L79.64 28.75L79.67 28.78Q79.11 29.13 79.11 30.24L79.05 30.18L79.11 30.23Q79.39 31.24 81.21 31.92L81.35 32.06L81.29 32.00Q82.43 32.46 85.10 33.56L85.10 33.56L84.97 33.43Q86.85 34.33 87.04 36.88L87.14 36.97L87.07 36.90Q87.21 37.61 87.13 38.60L86.96 38.43L87.08 38.55Q86.99 39.37 86.42 40.02L86.34 39.94L86.50 40.10Q84.89 41.19 81.84 41.19ZM86.59 43.77L86.59 43.77L86.64 43.82Q87.39 43.69 88.76 43.39L88.89 43.52L88.89 43.52Q90.00 42.87 89.81 41.65L89.69 41.54L89.79 41.63Q89.72 41.07 89.41 39.47L89.32 39.38L89.33 39.39Q88.88 36.55 87.09 35.33L87.09 35.32L86.95 35.18Q86.52 33.88 85.27 33.16L85.19 33.08L85.22 33.11Q84.06 32.79 81.59 31.84L81.51 31.76L81.59 31.84Q81.56 31.20 81.82 31.08L81.88 31.14L81.89 31.15Q82.44 30.63 83.08 30.59L83.11 30.62L83.26 30.77Q83.96 30.63 84.72 30.90L84.78 30.96L84.68 30.94L84.83 30.96L85.05 31.00L85.01 31.00L85.02 31.01Q86.23 31.61 86.42 32.86L86.45 32.89L86.44 32.88Q87.53 31.88 89.43 30.20L89.45 30.22L89.55 30.32Q89.27 29.58 88.28 28.40L88.29 28.41L88.20 28.33Q87.17 25.73 82.07 25.62L82.06 25.61L82.08 25.63Q78.96 25.63 76.98 26.20L76.90 26.13L76.96 26.18Q75.52 26.72 75.74 28.81L75.62 28.69L75.66 28.73Q75.77 29.98 76.69 32.08L76.64 32.03L76.80 32.19Q77.17 33.13 78.20 33.85L78.20 33.85L78.33 33.98Q79.03 35.48 80.32 36.17L80.23 36.08L80.35 36.20Q81.18 36.34 82.13 36.72L82.19 36.78L84.09 37.54L84.03 37.48Q83.74 38.63 81.80 38.52L81.81 38.54L81.81 38.53Q81.32 38.54 80.10 38.23L80.11 38.24L80.13 38.11L80.00 38.21L80.03 38.23Q79.19 37.89 78.54 36.41L78.46 36.32L78.43 36.30Q76.32 37.87 75.21 39.02L75.26 39.06L75.15 38.96Q75.59 40.01 76.62 40.80L76.46 40.65L76.29 40.78L76.38 40.87Q77.84 43.01 82.07 43.39L82.15 43.48L82.03 43.36Q83.28 43.47 86.52 43.70Z"/><path fill="#d279f0" d="M59.71 28.97L59.58 28.84L59.60 28.86Q57.13 28.94 56.10 30.12L56.14 30.16L56.13 30.15Q55.13 31.35 55.13 33.98L54.97 33.83L54.96 33.81Q55.05 39.01 59.66 38.82L59.73 38.89L59.74 38.90Q61.83 39.09 63.18 37.53L63.16 37.50L63.01 37.36Q64.41 35.84 64.18 33.79L64.18 33.79L64.31 33.91Q64.32 31.37 63.44 30.35L63.38 30.28L63.36 30.26Q61.83 28.88 59.62 28.88ZM64.61 38.63L64.62 38.64L64.68 38.70Q63.51 41.18 58.82 41.18L58.83 41.19L57.31 41.12L57.29 41.10Q55.08 41.24 53.97 40.10L53.88 40.00L53.84 39.96Q52.83 38.96 52.56 36.56L52.56 36.55L52.67 36.66Q52.53 35.19 52.45 33.40L52.48 33.43L52.46 33.41Q52.42 32.41 52.26 30.47L52.21 30.42L52.10 30.31Q52.15 26.17 57.33 26.17L57.28 26.12L58.81 26.09L58.75 26.03Q61.76 26.15 63.86 27.45L63.72 27.31L63.75 27.34Q64.51 27.79 65.00 28.48L65.18 28.65L65.12 28.59Q65.32 27.73 65.85 26.09L65.88 26.12L65.83 26.07Q67.16 25.99 69.48 25.38L69.38 25.27L69.43 25.32Q66.85 29.56 66.85 34.82L66.88 34.85L66.84 34.80Q66.90 38.60 68.27 41.68L68.20 41.61L68.17 41.58Q67.14 41.38 65.23 41.16L65.10 41.03L65.27 41.20Q64.95 40.23 64.65 38.67ZM68.03 43.96L68.08 44.01L70.20 44.48L70.12 44.41Q71.33 44.71 72.32 45.16L72.33 45.17L72.45 45.29Q68.79 40.95 68.79 34.86L68.71 34.78L68.83 34.90Q68.69 30.23 70.82 26.42L70.86 26.46L70.95 26.54Q70.28 26.75 68.95 27.13L68.91 27.09L68.92 27.10Q69.26 26.34 70.13 24.81L70.05 24.73L70.06 24.74Q69.54 24.99 65.55 25.82L65.63 25.91L65.00 27.67L64.90 27.58Q63.23 25.94 58.81 25.71L58.70 25.60L58.82 25.72Q57.73 25.77 55.48 25.93L55.35 25.79L55.38 25.82Q51.70 26.18 51.82 30.21L51.76 30.16L51.84 30.24Q51.98 33.57 52.55 38.03L52.48 37.96L52.58 38.48L52.66 38.55Q52.63 39.25 53.43 40.35L53.46 40.39L53.39 40.32Q53.59 40.51 53.78 40.63L53.81 40.66L53.92 40.77Q54.02 41.10 54.40 41.67L54.56 41.83L54.57 41.84Q55.95 43.33 59.34 43.52L59.37 43.56L59.27 43.45Q60.93 43.59 61.08 43.59L61.11 43.62L62.67 43.62L62.68 43.63Q65.74 43.49 66.96 41.93L66.96 41.93L66.97 41.94Q67.43 42.67 68.04 43.96ZM61.37 31.09L61.36 31.08L61.55 31.26Q62.72 31.10 63.55 31.56L63.53 31.54L63.61 31.61Q64.01 32.51 64.01 33.95L63.86 33.80L64.01 33.95Q64.12 35.78 62.85 37.21L62.92 37.28L62.75 37.11Q61.53 38.59 59.62 38.40L59.59 38.37L59.68 38.45Q58.26 38.49 57.23 38.07L57.12 37.95L57.22 38.05Q57.09 37.28 57.09 36.06L56.98 35.95L57.08 36.05Q57.11 32.42 59.73 31.47L59.80 31.53L59.71 31.44Q60.67 31.19 61.47 31.19Z"/><path d="M3 33 C71 17,59 44,144 24" stroke="#4c6ed6" fill="none"/><path fill="#cae282" d="M13.50 19.21L13.43 19.13L13.48 19.18Q14.62 23.67 14.77 26.87L14.77 26.87L14.72 26.82Q15.27 26.91 19.65 27.02L19.69 27.07L19.59 26.97Q22.12 26.98 22.50 23.52L22.66 23.68L22.65 23.67Q22.79 21.87 21.87 20.95L21.93 21.01L21.85 20.92Q20.60 20.06 18.62 19.91L18.61 19.90L18.65 19.93Q15.27 19.57 13.41 19.11ZM14.84 28.76L14.83 28.76L14.90 28.83Q14.98 34.73 13.19 40.67L13.33 40.81L13.29 40.77Q12.01 41.05 9.42 42.08L9.47 42.12L9.53 42.19Q12.19 35.52 11.85 28.06L11.87 28.08L11.82 28.03Q11.53 20.69 8.22 14.19L8.30 14.27L8.31 14.28Q13.19 17.11 20.16 17.11L20.17 17.12L20.09 17.04Q25.76 17.07 26.02 20.61L25.98 20.56L26.06 20.65Q26.11 21.23 26.03 21.83L25.99 21.79L25.93 22.95L25.89 22.92Q25.03 26.81 22.90 28.53L22.93 28.56L23.00 28.63Q22.15 29.26 21.12 29.26L21.24 29.38L18.64 29.37L18.56 29.29Q24.12 36.49 28.65 41.05L28.69 41.09L28.73 41.14Q26.55 40.40 23.62 40.06L23.50 39.94L23.56 40.00Q19.83 36.08 14.92 28.84ZM23.48 40.41L23.36 40.30L23.79 40.42L24.94 41.57L25.05 41.68Q25.62 42.21 26.26 42.82L26.16 42.71L26.13 42.68Q29.70 43.33 33.28 45.19L33.41 45.32L33.31 45.22Q26.35 38.45 20.95 31.52L21.09 31.66L22.84 31.67L22.80 31.62Q25.93 31.67 27.26 27.14L27.19 27.07L27.21 27.09Q27.92 24.91 27.92 22.21L27.90 22.19L27.78 22.06Q27.95 19.95 26.24 19.30L26.22 19.28L26.08 19.15Q25.97 18.77 25.40 18.09L25.53 18.21L25.56 18.24Q23.86 16.77 20.21 16.70L20.22 16.71L20.09 16.58Q12.15 16.37 7.47 13.37L7.60 13.50L7.60 13.49Q11.26 20.24 11.60 27.93L11.74 28.07L11.68 28.00Q12.07 36.01 8.95 42.86L8.87 42.79L8.93 42.84Q10.05 42.14 10.85 41.83L10.85 41.83L10.00 44.25L9.91 44.17Q12.68 43.17 15.35 42.68L15.41 42.73L15.26 42.58Q16.67 37.60 16.86 32.39L16.74 32.26L16.85 32.37Q20.29 37.26 23.45 40.38ZM22.25 22.51L22.18 22.44L22.15 22.41Q22.26 22.75 22.26 23.09L22.21 23.05L22.19 23.60L22.32 23.72Q22.29 24.80 21.61 25.75L21.52 25.66L21.50 25.64Q20.88 26.40 19.97 26.59L19.98 26.60L20.08 26.70Q19.72 26.61 18.12 26.64L18.13 26.65L18.10 26.62Q17.67 26.80 16.83 26.69L16.74 26.59L16.76 26.62Q16.74 25.19 16.40 22.14L16.25 22.00L16.35 22.09Q17.69 22.21 18.38 22.21L18.40 22.23L18.39 22.23Q20.21 22.22 22.15 22.41Z"/></svg>